<?xml version="1.0" encoding="UTF-8" standalone="no"?>
<!DOCTYPE svg PUBLIC "-//W3C//DTD SVG 1.1//EN"
 "http://www.w3.org/Graphics/SVG/1.1/DTD/svg11.dtd">
<!-- Generated by graphviz version 2.40.1 (20161225.0304)
 -->
<!-- Title: dependencies Pages: 1 -->
<svg width="504pt" height="284pt"
 viewBox="0.00 0.00 504.00 284.00" xmlns="http://www.w3.org/2000/svg" xmlns:xlink="http://www.w3.org/1999/xlink">
<g id="graph0" class="graph" transform="scale(1 1) rotate(0) translate(4 280)">
<title>dependencies</title>
<polygon fill="#ffffff" stroke="transparent" points="-4,4 -4,-280 500,-280 500,4 -4,4"/>
<text text-anchor="start" x="227.0091" y="-42.4" font-family="sans-serif" font-weight="bold" font-size="14.00" fill="#000000">Legend</text>
<polygon fill="#ffffb3" stroke="transparent" points="14,-10 14,-30 34,-30 34,-10 14,-10"/>
<text text-anchor="start" x="37.629" y="-15.4" font-family="sans-serif" font-size="14.00" fill="#000000"> &#160;Declarations</text>
<polygon fill="#8dd3c7" stroke="transparent" points="127,-10 127,-30 147,-30 147,-10 127,-10"/>
<text text-anchor="start" x="150.7251" y="-15.4" font-family="sans-serif" font-size="14.00" fill="#000000"> &#160;Module</text>
<polygon fill="#80b1d3" stroke="transparent" points="213,-10 213,-30 233,-30 233,-10 213,-10"/>
<text text-anchor="start" x="236.7812" y="-15.4" font-family="sans-serif" font-size="14.00" fill="#000000"> &#160;Bootstrap</text>
<polygon fill="#fdb462" stroke="transparent" points="310,-10 310,-30 330,-30 330,-10 310,-10"/>
<text text-anchor="start" x="333.6732" y="-15.4" font-family="sans-serif" font-size="14.00" fill="#000000"> &#160;Providers</text>
<polygon fill="#fb8072" stroke="transparent" points="406,-10 406,-30 426,-30 426,-10 406,-10"/>
<text text-anchor="start" x="429.7258" y="-15.4" font-family="sans-serif" font-size="14.00" fill="#000000"> &#160;Exports</text>
<g id="clust1" class="cluster">
<title>cluster_CoreModule</title>
<polygon fill="none" stroke="#000000" stroke-dasharray="1,5" points="102,-70 102,-268 394,-268 394,-70 102,-70"/>
</g>
<g id="clust2" class="cluster">
<title>cluster_CoreModule_declarations</title>
<polygon fill="none" stroke="#000000" points="241,-78 241,-130 385,-130 385,-78 241,-78"/>
</g>
<g id="clust4" class="cluster">
<title>cluster_CoreModule_imports</title>
<polygon fill="none" stroke="#000000" points="111,-78 111,-130 233,-130 233,-78 111,-78"/>
</g>
<g id="clust5" class="cluster">
<title>cluster_CoreModule_exports</title>
<polygon fill="none" stroke="#000000" points="110,-208 110,-260 386,-260 386,-208 110,-208"/>
</g>
<!-- ConfirmComponent -->
<g id="node1" class="node">
<title>ConfirmComponent</title>
<polygon fill="#ffffb3" stroke="#000000" points="377.2716,-122 248.7284,-122 248.7284,-86 377.2716,-86 377.2716,-122"/>
<text text-anchor="middle" x="313" y="-99.8" font-family="Times,serif" font-size="14.00" fill="#000000">ConfirmComponent</text>
</g>
<!-- CoreModule -->
<g id="node2" class="node">
<title>CoreModule</title>
<polygon fill="#8dd3c7" stroke="#000000" points="285.2619,-187 282.2619,-191 261.2619,-191 258.2619,-187 198.7381,-187 198.7381,-151 285.2619,-151 285.2619,-187"/>
<text text-anchor="middle" x="242" y="-164.8" font-family="Times,serif" font-size="14.00" fill="#000000">CoreModule</text>
</g>
<!-- ConfirmComponent&#45;&gt;CoreModule -->
<g id="edge1" class="edge">
<title>ConfirmComponent&#45;&gt;CoreModule</title>
<path fill="none" stroke="#000000" d="M266.9976,-122.1061C266.9976,-122.1061 266.9976,-140.991 266.9976,-140.991"/>
<polygon fill="#000000" stroke="#000000" points="263.4976,-140.9909 266.9976,-150.991 270.4976,-140.991 263.4976,-140.9909"/>
</g>
<!-- ConfirmComponent  -->
<g id="node4" class="node">
<title>ConfirmComponent </title>
<polygon fill="#fb8072" stroke="#000000" points="378.2717,-252 245.7283,-252 245.7283,-216 378.2717,-216 378.2717,-252"/>
<text text-anchor="middle" x="312" y="-229.8" font-family="Times,serif" font-size="14.00" fill="#000000">ConfirmComponent </text>
</g>
<!-- CoreModule&#45;&gt;ConfirmComponent  -->
<g id="edge3" class="edge">
<title>CoreModule&#45;&gt;ConfirmComponent </title>
<path fill="none" stroke="#000000" stroke-dasharray="5,2" d="M265.6226,-187.1061C265.6226,-187.1061 265.6226,-205.991 265.6226,-205.991"/>
<polygon fill="#000000" stroke="#000000" points="262.1226,-205.9909 265.6226,-215.991 269.1226,-205.991 262.1226,-205.9909"/>
</g>
<!-- MaterialModule  -->
<g id="node5" class="node">
<title>MaterialModule </title>
<polygon fill="#fb8072" stroke="#000000" points="228.4716,-252 117.5284,-252 117.5284,-216 228.4716,-216 228.4716,-252"/>
<text text-anchor="middle" x="173" y="-229.8" font-family="Times,serif" font-size="14.00" fill="#000000">MaterialModule </text>
</g>
<!-- CoreModule&#45;&gt;MaterialModule  -->
<g id="edge4" class="edge">
<title>CoreModule&#45;&gt;MaterialModule </title>
<path fill="none" stroke="#000000" stroke-dasharray="5,2" d="M213.4273,-187.1061C213.4273,-187.1061 213.4273,-205.991 213.4273,-205.991"/>
<polygon fill="#000000" stroke="#000000" points="209.9273,-205.9909 213.4273,-215.991 216.9273,-205.991 209.9273,-205.9909"/>
</g>
<!-- MaterialModule -->
<g id="node3" class="node">
<title>MaterialModule</title>
<polygon fill="#8dd3c7" stroke="#000000" points="225.4706,-122 222.4706,-126 201.4706,-126 198.4706,-122 118.5294,-122 118.5294,-86 225.4706,-86 225.4706,-122"/>
<text text-anchor="middle" x="172" y="-99.8" font-family="Times,serif" font-size="14.00" fill="#000000">MaterialModule</text>
</g>
<!-- MaterialModule&#45;&gt;CoreModule -->
<g id="edge2" class="edge">
<title>MaterialModule&#45;&gt;CoreModule</title>
<path fill="none" stroke="#000000" d="M212.0523,-122.1061C212.0523,-122.1061 212.0523,-140.991 212.0523,-140.991"/>
<polygon fill="#000000" stroke="#000000" points="208.5523,-140.9909 212.0523,-150.991 215.5523,-140.991 208.5523,-140.9909"/>
</g>
</g>
</svg>
