<?xml version="1.0" encoding="UTF-8" standalone="no"?>
<!DOCTYPE svg PUBLIC "-//W3C//DTD SVG 1.1//EN"
 "http://www.w3.org/Graphics/SVG/1.1/DTD/svg11.dtd">
<!-- Generated by graphviz version 2.40.1 (20161225.0304)
 -->
<!-- Title: dependencies Pages: 1 -->
<svg width="889pt" height="284pt"
 viewBox="0.00 0.00 889.00 284.00" xmlns="http://www.w3.org/2000/svg" xmlns:xlink="http://www.w3.org/1999/xlink">
<g id="graph0" class="graph" transform="scale(1 1) rotate(0) translate(4 280)">
<title>dependencies</title>
<polygon fill="#ffffff" stroke="transparent" points="-4,4 -4,-280 885,-280 885,4 -4,4"/>
<text text-anchor="start" x="419.5091" y="-42.4" font-family="sans-serif" font-weight="bold" font-size="14.00" fill="#000000">Legend</text>
<polygon fill="#ffffb3" stroke="transparent" points="206.5,-10 206.5,-30 226.5,-30 226.5,-10 206.5,-10"/>
<text text-anchor="start" x="230.129" y="-15.4" font-family="sans-serif" font-size="14.00" fill="#000000"> &#160;Declarations</text>
<polygon fill="#8dd3c7" stroke="transparent" points="319.5,-10 319.5,-30 339.5,-30 339.5,-10 319.5,-10"/>
<text text-anchor="start" x="343.2251" y="-15.4" font-family="sans-serif" font-size="14.00" fill="#000000"> &#160;Module</text>
<polygon fill="#80b1d3" stroke="transparent" points="405.5,-10 405.5,-30 425.5,-30 425.5,-10 405.5,-10"/>
<text text-anchor="start" x="429.2812" y="-15.4" font-family="sans-serif" font-size="14.00" fill="#000000"> &#160;Bootstrap</text>
<polygon fill="#fdb462" stroke="transparent" points="502.5,-10 502.5,-30 522.5,-30 522.5,-10 502.5,-10"/>
<text text-anchor="start" x="526.1732" y="-15.4" font-family="sans-serif" font-size="14.00" fill="#000000"> &#160;Providers</text>
<polygon fill="#fb8072" stroke="transparent" points="598.5,-10 598.5,-30 618.5,-30 618.5,-10 598.5,-10"/>
<text text-anchor="start" x="622.2258" y="-15.4" font-family="sans-serif" font-size="14.00" fill="#000000"> &#160;Exports</text>
<g id="clust1" class="cluster">
<title>cluster_DashboardModule</title>
<polygon fill="none" stroke="#000000" stroke-dasharray="1,5" points="8,-70 8,-268 873,-268 873,-70 8,-70"/>
</g>
<g id="clust2" class="cluster">
<title>cluster_DashboardModule_declarations</title>
<polygon fill="none" stroke="#000000" points="721,-78 721,-130 865,-130 865,-78 721,-78"/>
</g>
<g id="clust4" class="cluster">
<title>cluster_DashboardModule_imports</title>
<polygon fill="none" stroke="#000000" points="186,-78 186,-130 713,-130 713,-78 186,-78"/>
</g>
<g id="clust5" class="cluster">
<title>cluster_DashboardModule_exports</title>
<polygon fill="none" stroke="#000000" points="252,-208 252,-260 640,-260 640,-208 252,-208"/>
</g>
<g id="clust7" class="cluster">
<title>cluster_DashboardModule_providers</title>
<polygon fill="none" stroke="#000000" points="16,-78 16,-130 178,-130 178,-78 16,-78"/>
</g>
<!-- ConfirmComponent -->
<g id="node1" class="node">
<title>ConfirmComponent</title>
<polygon fill="#ffffb3" stroke="#000000" points="857.2716,-122 728.7284,-122 728.7284,-86 857.2716,-86 857.2716,-122"/>
<text text-anchor="middle" x="793" y="-99.8" font-family="Times,serif" font-size="14.00" fill="#000000">ConfirmComponent</text>
</g>
<!-- DashboardModule -->
<g id="node2" class="node">
<title>DashboardModule</title>
<polygon fill="#8dd3c7" stroke="#000000" points="501.191,-187 498.191,-191 477.191,-191 474.191,-187 380.809,-187 380.809,-151 501.191,-151 501.191,-187"/>
<text text-anchor="middle" x="441" y="-164.8" font-family="Times,serif" font-size="14.00" fill="#000000">DashboardModule</text>
</g>
<!-- ConfirmComponent&#45;&gt;DashboardModule -->
<g id="edge1" class="edge">
<title>ConfirmComponent&#45;&gt;DashboardModule</title>
<path fill="none" stroke="#000000" d="M793,-122.2843C793,-143.3211 793,-175 793,-175 793,-175 511.111,-175 511.111,-175"/>
<polygon fill="#000000" stroke="#000000" points="511.111,-171.5001 501.111,-175 511.111,-178.5001 511.111,-171.5001"/>
</g>
<!-- DashboardLayoutComponent  -->
<g id="node7" class="node">
<title>DashboardLayoutComponent </title>
<polygon fill="#fb8072" stroke="#000000" points="631.6312,-252 446.3688,-252 446.3688,-216 631.6312,-216 631.6312,-252"/>
<text text-anchor="middle" x="539" y="-229.8" font-family="Times,serif" font-size="14.00" fill="#000000">DashboardLayoutComponent </text>
</g>
<!-- DashboardModule&#45;&gt;DashboardLayoutComponent  -->
<g id="edge6" class="edge">
<title>DashboardModule&#45;&gt;DashboardLayoutComponent </title>
<path fill="none" stroke="#000000" stroke-dasharray="5,2" d="M473.7649,-187.1061C473.7649,-187.1061 473.7649,-205.991 473.7649,-205.991"/>
<polygon fill="#000000" stroke="#000000" points="470.265,-205.9909 473.7649,-215.991 477.265,-205.991 470.265,-205.9909"/>
</g>
<!-- DashboardRoutingModule  -->
<g id="node8" class="node">
<title>DashboardRoutingModule </title>
<polygon fill="#fb8072" stroke="#000000" points="428.3087,-252 259.6913,-252 259.6913,-216 428.3087,-216 428.3087,-252"/>
<text text-anchor="middle" x="344" y="-229.8" font-family="Times,serif" font-size="14.00" fill="#000000">DashboardRoutingModule </text>
</g>
<!-- DashboardModule&#45;&gt;DashboardRoutingModule  -->
<g id="edge7" class="edge">
<title>DashboardModule&#45;&gt;DashboardRoutingModule </title>
<path fill="none" stroke="#000000" stroke-dasharray="5,2" d="M404.6545,-187.1061C404.6545,-187.1061 404.6545,-205.991 404.6545,-205.991"/>
<polygon fill="#000000" stroke="#000000" points="401.1545,-205.9909 404.6545,-215.991 408.1545,-205.991 401.1545,-205.9909"/>
</g>
<!-- CoreModule -->
<g id="node3" class="node">
<title>CoreModule</title>
<polygon fill="#8dd3c7" stroke="#000000" points="705.2619,-122 702.2619,-126 681.2619,-126 678.2619,-122 618.7381,-122 618.7381,-86 705.2619,-86 705.2619,-122"/>
<text text-anchor="middle" x="662" y="-99.8" font-family="Times,serif" font-size="14.00" fill="#000000">CoreModule</text>
</g>
<!-- CoreModule&#45;&gt;DashboardModule -->
<g id="edge2" class="edge">
<title>CoreModule&#45;&gt;DashboardModule</title>
<path fill="none" stroke="#000000" d="M625.0924,-122.0225C625.0924,-139.3734 625.0924,-163 625.0924,-163 625.0924,-163 511.2787,-163 511.2787,-163"/>
<polygon fill="#000000" stroke="#000000" points="511.2788,-159.5001 501.2787,-163 511.2787,-166.5001 511.2788,-159.5001"/>
</g>
<!-- DashboardRoutingModule -->
<g id="node4" class="node">
<title>DashboardRoutingModule</title>
<polygon fill="#8dd3c7" stroke="#000000" points="600.8089,-122 597.8089,-126 576.8089,-126 573.8089,-122 435.1911,-122 435.1911,-86 600.8089,-86 600.8089,-122"/>
<text text-anchor="middle" x="518" y="-99.8" font-family="Times,serif" font-size="14.00" fill="#000000">DashboardRoutingModule</text>
</g>
<!-- DashboardRoutingModule&#45;&gt;DashboardModule -->
<g id="edge3" class="edge">
<title>DashboardRoutingModule&#45;&gt;DashboardModule</title>
<path fill="none" stroke="#000000" d="M468.2206,-122.1061C468.2206,-122.1061 468.2206,-140.991 468.2206,-140.991"/>
<polygon fill="#000000" stroke="#000000" points="464.7206,-140.9909 468.2206,-150.991 471.7206,-140.991 464.7206,-140.9909"/>
</g>
<!-- MaterialModule -->
<g id="node5" class="node">
<title>MaterialModule</title>
<polygon fill="#8dd3c7" stroke="#000000" points="417.4706,-122 414.4706,-126 393.4706,-126 390.4706,-122 310.5294,-122 310.5294,-86 417.4706,-86 417.4706,-122"/>
<text text-anchor="middle" x="364" y="-99.8" font-family="Times,serif" font-size="14.00" fill="#000000">MaterialModule</text>
</g>
<!-- MaterialModule&#45;&gt;DashboardModule -->
<g id="edge4" class="edge">
<title>MaterialModule&#45;&gt;DashboardModule</title>
<path fill="none" stroke="#000000" d="M399.195,-122.1061C399.195,-122.1061 399.195,-140.991 399.195,-140.991"/>
<polygon fill="#000000" stroke="#000000" points="395.695,-140.9909 399.195,-150.991 402.695,-140.991 395.695,-140.9909"/>
</g>
<!-- SharedModule -->
<g id="node6" class="node">
<title>SharedModule</title>
<polygon fill="#8dd3c7" stroke="#000000" points="292.4231,-122 289.4231,-126 268.4231,-126 265.4231,-122 193.5769,-122 193.5769,-86 292.4231,-86 292.4231,-122"/>
<text text-anchor="middle" x="243" y="-99.8" font-family="Times,serif" font-size="14.00" fill="#000000">SharedModule</text>
</g>
<!-- SharedModule&#45;&gt;DashboardModule -->
<g id="edge5" class="edge">
<title>SharedModule&#45;&gt;DashboardModule</title>
<path fill="none" stroke="#000000" d="M275.9034,-122.0225C275.9034,-139.3734 275.9034,-163 275.9034,-163 275.9034,-163 370.4616,-163 370.4616,-163"/>
<polygon fill="#000000" stroke="#000000" points="370.4616,-166.5001 380.4616,-163 370.4616,-159.5001 370.4616,-166.5001"/>
</g>
<!-- ConfirmService -->
<g id="node9" class="node">
<title>ConfirmService</title>
<ellipse fill="#fdb462" stroke="#000000" cx="97" cy="-104" rx="72.9295" ry="18"/>
<text text-anchor="middle" x="97" y="-99.8" font-family="Times,serif" font-size="14.00" fill="#000000">ConfirmService</text>
</g>
<!-- ConfirmService&#45;&gt;DashboardModule -->
<g id="edge8" class="edge">
<title>ConfirmService&#45;&gt;DashboardModule</title>
<path fill="none" stroke="#000000" d="M97,-122.2843C97,-143.3211 97,-175 97,-175 97,-175 370.6861,-175 370.6861,-175"/>
<polygon fill="#000000" stroke="#000000" points="370.6862,-178.5001 380.6861,-175 370.6861,-171.5001 370.6862,-178.5001"/>
</g>
</g>
</svg>
