<?xml version="1.0" encoding="UTF-8" standalone="no"?>
<!DOCTYPE svg PUBLIC "-//W3C//DTD SVG 1.1//EN"
 "http://www.w3.org/Graphics/SVG/1.1/DTD/svg11.dtd">
<!-- Generated by graphviz version 2.40.1 (20161225.0304)
 -->
<!-- Title: dependencies Pages: 1 -->
<svg width="1539pt" height="284pt"
 viewBox="0.00 0.00 1539.00 284.00" xmlns="http://www.w3.org/2000/svg" xmlns:xlink="http://www.w3.org/1999/xlink">
<g id="graph0" class="graph" transform="scale(1 1) rotate(0) translate(4 280)">
<title>dependencies</title>
<polygon fill="#ffffff" stroke="transparent" points="-4,4 -4,-280 1535,-280 1535,4 -4,4"/>
<text text-anchor="start" x="744.5091" y="-42.4" font-family="sans-serif" font-weight="bold" font-size="14.00" fill="#000000">Legend</text>
<polygon fill="#ffffb3" stroke="transparent" points="531.5,-10 531.5,-30 551.5,-30 551.5,-10 531.5,-10"/>
<text text-anchor="start" x="555.129" y="-15.4" font-family="sans-serif" font-size="14.00" fill="#000000"> &#160;Declarations</text>
<polygon fill="#8dd3c7" stroke="transparent" points="644.5,-10 644.5,-30 664.5,-30 664.5,-10 644.5,-10"/>
<text text-anchor="start" x="668.2251" y="-15.4" font-family="sans-serif" font-size="14.00" fill="#000000"> &#160;Module</text>
<polygon fill="#80b1d3" stroke="transparent" points="730.5,-10 730.5,-30 750.5,-30 750.5,-10 730.5,-10"/>
<text text-anchor="start" x="754.2812" y="-15.4" font-family="sans-serif" font-size="14.00" fill="#000000"> &#160;Bootstrap</text>
<polygon fill="#fdb462" stroke="transparent" points="827.5,-10 827.5,-30 847.5,-30 847.5,-10 827.5,-10"/>
<text text-anchor="start" x="851.1732" y="-15.4" font-family="sans-serif" font-size="14.00" fill="#000000"> &#160;Providers</text>
<polygon fill="#fb8072" stroke="transparent" points="923.5,-10 923.5,-30 943.5,-30 943.5,-10 923.5,-10"/>
<text text-anchor="start" x="947.2258" y="-15.4" font-family="sans-serif" font-size="14.00" fill="#000000"> &#160;Exports</text>
<g id="clust1" class="cluster">
<title>cluster_DashboardModule</title>
<polygon fill="none" stroke="#000000" stroke-dasharray="1,5" points="8,-70 8,-268 1523,-268 1523,-70 8,-70"/>
</g>
<g id="clust2" class="cluster">
<title>cluster_DashboardModule_declarations</title>
<polygon fill="none" stroke="#000000" points="721,-78 721,-130 1515,-130 1515,-78 721,-78"/>
</g>
<g id="clust8" class="cluster">
<title>cluster_DashboardModule_imports</title>
<polygon fill="none" stroke="#000000" points="186,-78 186,-130 713,-130 713,-78 186,-78"/>
</g>
<g id="clust9" class="cluster">
<title>cluster_DashboardModule_exports</title>
<polygon fill="none" stroke="#000000" points="537,-208 537,-260 925,-260 925,-208 537,-208"/>
</g>
<g id="clust11" class="cluster">
<title>cluster_DashboardModule_providers</title>
<polygon fill="none" stroke="#000000" points="16,-78 16,-130 178,-130 178,-78 16,-78"/>
</g>
<!-- AuthLayoutComponent -->
<g id="node1" class="node">
<title>AuthLayoutComponent</title>
<polygon fill="#ffffb3" stroke="#000000" points="1507.4874,-122 1358.5126,-122 1358.5126,-86 1507.4874,-86 1507.4874,-122"/>
<text text-anchor="middle" x="1433" y="-99.8" font-family="Times,serif" font-size="14.00" fill="#000000">AuthLayoutComponent</text>
</g>
<!-- DashboardModule -->
<g id="node6" class="node">
<title>DashboardModule</title>
<polygon fill="#8dd3c7" stroke="#000000" points="786.191,-187 783.191,-191 762.191,-191 759.191,-187 665.809,-187 665.809,-151 786.191,-151 786.191,-187"/>
<text text-anchor="middle" x="726" y="-164.8" font-family="Times,serif" font-size="14.00" fill="#000000">DashboardModule</text>
</g>
<!-- AuthLayoutComponent&#45;&gt;DashboardModule -->
<g id="edge1" class="edge">
<title>AuthLayoutComponent&#45;&gt;DashboardModule</title>
<path fill="none" stroke="#000000" d="M1433,-122.0109C1433,-144.4852 1433,-180 1433,-180 1433,-180 796.2784,-180 796.2784,-180"/>
<polygon fill="#000000" stroke="#000000" points="796.2785,-176.5001 786.2784,-180 796.2784,-183.5001 796.2785,-176.5001"/>
</g>
<!-- ForgotPasswordComponent -->
<g id="node2" class="node">
<title>ForgotPasswordComponent</title>
<polygon fill="#ffffb3" stroke="#000000" points="1340.3201,-122 1167.6799,-122 1167.6799,-86 1340.3201,-86 1340.3201,-122"/>
<text text-anchor="middle" x="1254" y="-99.8" font-family="Times,serif" font-size="14.00" fill="#000000">ForgotPasswordComponent</text>
</g>
<!-- ForgotPasswordComponent&#45;&gt;DashboardModule -->
<g id="edge2" class="edge">
<title>ForgotPasswordComponent&#45;&gt;DashboardModule</title>
<path fill="none" stroke="#000000" d="M1254,-122.1289C1254,-142.5724 1254,-173 1254,-173 1254,-173 796.3111,-173 796.3111,-173"/>
<polygon fill="#000000" stroke="#000000" points="796.3111,-169.5001 786.3111,-173 796.311,-176.5001 796.3111,-169.5001"/>
</g>
<!-- LockscreenComponent -->
<g id="node3" class="node">
<title>LockscreenComponent</title>
<polygon fill="#ffffb3" stroke="#000000" points="1149.8487,-122 1004.1513,-122 1004.1513,-86 1149.8487,-86 1149.8487,-122"/>
<text text-anchor="middle" x="1077" y="-99.8" font-family="Times,serif" font-size="14.00" fill="#000000">LockscreenComponent</text>
</g>
<!-- LockscreenComponent&#45;&gt;DashboardModule -->
<g id="edge3" class="edge">
<title>LockscreenComponent&#45;&gt;DashboardModule</title>
<path fill="none" stroke="#000000" d="M1077,-122.2667C1077,-140.5552 1077,-166 1077,-166 1077,-166 796.3391,-166 796.3391,-166"/>
<polygon fill="#000000" stroke="#000000" points="796.3391,-162.5001 786.3391,-166 796.339,-169.5001 796.3391,-162.5001"/>
</g>
<!-- SigninComponent -->
<g id="node4" class="node">
<title>SigninComponent</title>
<polygon fill="#ffffb3" stroke="#000000" points="985.8962,-122 868.1038,-122 868.1038,-86 985.8962,-86 985.8962,-122"/>
<text text-anchor="middle" x="927" y="-99.8" font-family="Times,serif" font-size="14.00" fill="#000000">SigninComponent</text>
</g>
<!-- SigninComponent&#45;&gt;DashboardModule -->
<g id="edge4" class="edge">
<title>SigninComponent&#45;&gt;DashboardModule</title>
<path fill="none" stroke="#000000" d="M892.3088,-122.0091C892.3088,-138.0494 892.3088,-159 892.3088,-159 892.3088,-159 796.5117,-159 796.5117,-159"/>
<polygon fill="#000000" stroke="#000000" points="796.5118,-155.5001 786.5117,-159 796.5117,-162.5001 796.5118,-155.5001"/>
</g>
<!-- SignupComponent -->
<g id="node5" class="node">
<title>SignupComponent</title>
<polygon fill="#ffffb3" stroke="#000000" points="850.5056,-122 729.4944,-122 729.4944,-86 850.5056,-86 850.5056,-122"/>
<text text-anchor="middle" x="790" y="-99.8" font-family="Times,serif" font-size="14.00" fill="#000000">SignupComponent</text>
</g>
<!-- SignupComponent&#45;&gt;DashboardModule -->
<g id="edge5" class="edge">
<title>SignupComponent&#45;&gt;DashboardModule</title>
<path fill="none" stroke="#000000" d="M757.7963,-122.1061C757.7963,-122.1061 757.7963,-140.991 757.7963,-140.991"/>
<polygon fill="#000000" stroke="#000000" points="754.2964,-140.9909 757.7963,-150.991 761.2964,-140.991 754.2964,-140.9909"/>
</g>
<!-- DashboardLayoutComponent  -->
<g id="node11" class="node">
<title>DashboardLayoutComponent </title>
<polygon fill="#fb8072" stroke="#000000" points="916.6312,-252 731.3688,-252 731.3688,-216 916.6312,-216 916.6312,-252"/>
<text text-anchor="middle" x="824" y="-229.8" font-family="Times,serif" font-size="14.00" fill="#000000">DashboardLayoutComponent </text>
</g>
<!-- DashboardModule&#45;&gt;DashboardLayoutComponent  -->
<g id="edge10" class="edge">
<title>DashboardModule&#45;&gt;DashboardLayoutComponent </title>
<path fill="none" stroke="#000000" stroke-dasharray="5,2" d="M758.7649,-187.1061C758.7649,-187.1061 758.7649,-205.991 758.7649,-205.991"/>
<polygon fill="#000000" stroke="#000000" points="755.265,-205.9909 758.7649,-215.991 762.265,-205.991 755.265,-205.9909"/>
</g>
<!-- DashboardRoutingModule  -->
<g id="node12" class="node">
<title>DashboardRoutingModule </title>
<polygon fill="#fb8072" stroke="#000000" points="713.3087,-252 544.6913,-252 544.6913,-216 713.3087,-216 713.3087,-252"/>
<text text-anchor="middle" x="629" y="-229.8" font-family="Times,serif" font-size="14.00" fill="#000000">DashboardRoutingModule </text>
</g>
<!-- DashboardModule&#45;&gt;DashboardRoutingModule  -->
<g id="edge11" class="edge">
<title>DashboardModule&#45;&gt;DashboardRoutingModule </title>
<path fill="none" stroke="#000000" stroke-dasharray="5,2" d="M689.6545,-187.1061C689.6545,-187.1061 689.6545,-205.991 689.6545,-205.991"/>
<polygon fill="#000000" stroke="#000000" points="686.1545,-205.9909 689.6545,-215.991 693.1545,-205.991 686.1545,-205.9909"/>
</g>
<!-- CoreModule -->
<g id="node7" class="node">
<title>CoreModule</title>
<polygon fill="#8dd3c7" stroke="#000000" points="705.2619,-122 702.2619,-126 681.2619,-126 678.2619,-122 618.7381,-122 618.7381,-86 705.2619,-86 705.2619,-122"/>
<text text-anchor="middle" x="662" y="-99.8" font-family="Times,serif" font-size="14.00" fill="#000000">CoreModule</text>
</g>
<!-- CoreModule&#45;&gt;DashboardModule -->
<g id="edge6" class="edge">
<title>CoreModule&#45;&gt;DashboardModule</title>
<path fill="none" stroke="#000000" d="M685.6427,-122.1061C685.6427,-122.1061 685.6427,-140.991 685.6427,-140.991"/>
<polygon fill="#000000" stroke="#000000" points="682.1428,-140.9909 685.6427,-150.991 689.1428,-140.991 682.1428,-140.9909"/>
</g>
<!-- DashboardRoutingModule -->
<g id="node8" class="node">
<title>DashboardRoutingModule</title>
<polygon fill="#8dd3c7" stroke="#000000" points="600.8089,-122 597.8089,-126 576.8089,-126 573.8089,-122 435.1911,-122 435.1911,-86 600.8089,-86 600.8089,-122"/>
<text text-anchor="middle" x="518" y="-99.8" font-family="Times,serif" font-size="14.00" fill="#000000">DashboardRoutingModule</text>
</g>
<!-- DashboardRoutingModule&#45;&gt;DashboardModule -->
<g id="edge7" class="edge">
<title>DashboardRoutingModule&#45;&gt;DashboardModule</title>
<path fill="none" stroke="#000000" d="M572.625,-122.0091C572.625,-138.0494 572.625,-159 572.625,-159 572.625,-159 655.8223,-159 655.8223,-159"/>
<polygon fill="#000000" stroke="#000000" points="655.8224,-162.5001 665.8223,-159 655.8223,-155.5001 655.8224,-162.5001"/>
</g>
<!-- MaterialModule -->
<g id="node9" class="node">
<title>MaterialModule</title>
<polygon fill="#8dd3c7" stroke="#000000" points="417.4706,-122 414.4706,-126 393.4706,-126 390.4706,-122 310.5294,-122 310.5294,-86 417.4706,-86 417.4706,-122"/>
<text text-anchor="middle" x="364" y="-99.8" font-family="Times,serif" font-size="14.00" fill="#000000">MaterialModule</text>
</g>
<!-- MaterialModule&#45;&gt;DashboardModule -->
<g id="edge8" class="edge">
<title>MaterialModule&#45;&gt;DashboardModule</title>
<path fill="none" stroke="#000000" d="M364,-122.2667C364,-140.5552 364,-166 364,-166 364,-166 655.8167,-166 655.8167,-166"/>
<polygon fill="#000000" stroke="#000000" points="655.8167,-169.5001 665.8167,-166 655.8167,-162.5001 655.8167,-169.5001"/>
</g>
<!-- SharedModule -->
<g id="node10" class="node">
<title>SharedModule</title>
<polygon fill="#8dd3c7" stroke="#000000" points="292.4231,-122 289.4231,-126 268.4231,-126 265.4231,-122 193.5769,-122 193.5769,-86 292.4231,-86 292.4231,-122"/>
<text text-anchor="middle" x="243" y="-99.8" font-family="Times,serif" font-size="14.00" fill="#000000">SharedModule</text>
</g>
<!-- SharedModule&#45;&gt;DashboardModule -->
<g id="edge9" class="edge">
<title>SharedModule&#45;&gt;DashboardModule</title>
<path fill="none" stroke="#000000" d="M243,-122.1289C243,-142.5724 243,-173 243,-173 243,-173 655.8043,-173 655.8043,-173"/>
<polygon fill="#000000" stroke="#000000" points="655.8043,-176.5001 665.8043,-173 655.8043,-169.5001 655.8043,-176.5001"/>
</g>
<!-- ConfirmService -->
<g id="node13" class="node">
<title>ConfirmService</title>
<ellipse fill="#fdb462" stroke="#000000" cx="97" cy="-104" rx="72.9295" ry="18"/>
<text text-anchor="middle" x="97" y="-99.8" font-family="Times,serif" font-size="14.00" fill="#000000">ConfirmService</text>
</g>
<!-- ConfirmService&#45;&gt;DashboardModule -->
<g id="edge12" class="edge">
<title>ConfirmService&#45;&gt;DashboardModule</title>
<path fill="none" stroke="#000000" d="M97,-122.0109C97,-144.4852 97,-180 97,-180 97,-180 655.6888,-180 655.6888,-180"/>
<polygon fill="#000000" stroke="#000000" points="655.6889,-183.5001 665.6888,-180 655.6888,-176.5001 655.6889,-183.5001"/>
</g>
</g>
</svg>
