<?xml version="1.0" encoding="UTF-8" standalone="no"?>
<!DOCTYPE svg PUBLIC "-//W3C//DTD SVG 1.1//EN"
 "http://www.w3.org/Graphics/SVG/1.1/DTD/svg11.dtd">
<!-- Generated by graphviz version 2.40.1 (20161225.0304)
 -->
<!-- Title: dependencies Pages: 1 -->
<svg width="1115pt" height="211pt"
 viewBox="0.00 0.00 1115.00 211.00" xmlns="http://www.w3.org/2000/svg" xmlns:xlink="http://www.w3.org/1999/xlink">
<g id="graph0" class="graph" transform="scale(1 1) rotate(0) translate(4 207)">
<title>dependencies</title>
<polygon fill="#ffffff" stroke="transparent" points="-4,4 -4,-207 1111,-207 1111,4 -4,4"/>
<text text-anchor="start" x="532.5091" y="-42.4" font-family="sans-serif" font-weight="bold" font-size="14.00" fill="#000000">Legend</text>
<polygon fill="#ffffb3" stroke="transparent" points="319.5,-10 319.5,-30 339.5,-30 339.5,-10 319.5,-10"/>
<text text-anchor="start" x="343.129" y="-15.4" font-family="sans-serif" font-size="14.00" fill="#000000"> &#160;Declarations</text>
<polygon fill="#8dd3c7" stroke="transparent" points="432.5,-10 432.5,-30 452.5,-30 452.5,-10 432.5,-10"/>
<text text-anchor="start" x="456.2251" y="-15.4" font-family="sans-serif" font-size="14.00" fill="#000000"> &#160;Module</text>
<polygon fill="#80b1d3" stroke="transparent" points="518.5,-10 518.5,-30 538.5,-30 538.5,-10 518.5,-10"/>
<text text-anchor="start" x="542.2812" y="-15.4" font-family="sans-serif" font-size="14.00" fill="#000000"> &#160;Bootstrap</text>
<polygon fill="#fdb462" stroke="transparent" points="615.5,-10 615.5,-30 635.5,-30 635.5,-10 615.5,-10"/>
<text text-anchor="start" x="639.1732" y="-15.4" font-family="sans-serif" font-size="14.00" fill="#000000"> &#160;Providers</text>
<polygon fill="#fb8072" stroke="transparent" points="711.5,-10 711.5,-30 731.5,-30 731.5,-10 711.5,-10"/>
<text text-anchor="start" x="735.2258" y="-15.4" font-family="sans-serif" font-size="14.00" fill="#000000"> &#160;Exports</text>
<g id="clust1" class="cluster">
<title>cluster_AuthModule</title>
<polygon fill="none" stroke="#000000" stroke-dasharray="1,5" points="8,-70 8,-195 1099,-195 1099,-70 8,-70"/>
</g>
<g id="clust2" class="cluster">
<title>cluster_AuthModule_declarations</title>
<polygon fill="none" stroke="#000000" points="297,-78 297,-130 1091,-130 1091,-78 297,-78"/>
</g>
<g id="clust8" class="cluster">
<title>cluster_AuthModule_imports</title>
<polygon fill="none" stroke="#000000" points="16,-78 16,-130 289,-130 289,-78 16,-78"/>
</g>
<!-- AuthLayoutComponent -->
<g id="node1" class="node">
<title>AuthLayoutComponent</title>
<polygon fill="#ffffb3" stroke="#000000" points="1083.4874,-122 934.5126,-122 934.5126,-86 1083.4874,-86 1083.4874,-122"/>
<text text-anchor="middle" x="1009" y="-99.8" font-family="Times,serif" font-size="14.00" fill="#000000">AuthLayoutComponent</text>
</g>
<!-- AuthModule -->
<g id="node6" class="node">
<title>AuthModule</title>
<polygon fill="#8dd3c7" stroke="#000000" points="546.5482,-187 543.5482,-191 522.5482,-191 519.5482,-187 459.4518,-187 459.4518,-151 546.5482,-151 546.5482,-187"/>
<text text-anchor="middle" x="503" y="-164.8" font-family="Times,serif" font-size="14.00" fill="#000000">AuthModule</text>
</g>
<!-- AuthLayoutComponent&#45;&gt;AuthModule -->
<g id="edge1" class="edge">
<title>AuthLayoutComponent&#45;&gt;AuthModule</title>
<path fill="none" stroke="#000000" d="M1009,-122.2921C1009,-144.2057 1009,-178 1009,-178 1009,-178 556.5792,-178 556.5792,-178"/>
<polygon fill="#000000" stroke="#000000" points="556.5793,-174.5001 546.5792,-178 556.5792,-181.5001 556.5793,-174.5001"/>
</g>
<!-- ForgotPasswordComponent -->
<g id="node2" class="node">
<title>ForgotPasswordComponent</title>
<polygon fill="#ffffb3" stroke="#000000" points="916.3201,-122 743.6799,-122 743.6799,-86 916.3201,-86 916.3201,-122"/>
<text text-anchor="middle" x="830" y="-99.8" font-family="Times,serif" font-size="14.00" fill="#000000">ForgotPasswordComponent</text>
</g>
<!-- ForgotPasswordComponent&#45;&gt;AuthModule -->
<g id="edge2" class="edge">
<title>ForgotPasswordComponent&#45;&gt;AuthModule</title>
<path fill="none" stroke="#000000" d="M830,-122.1061C830,-141.3391 830,-169 830,-169 830,-169 556.7614,-169 556.7614,-169"/>
<polygon fill="#000000" stroke="#000000" points="556.7614,-165.5001 546.7614,-169 556.7613,-172.5001 556.7614,-165.5001"/>
</g>
<!-- LockscreenComponent -->
<g id="node3" class="node">
<title>LockscreenComponent</title>
<polygon fill="#ffffb3" stroke="#000000" points="725.8487,-122 580.1513,-122 580.1513,-86 725.8487,-86 725.8487,-122"/>
<text text-anchor="middle" x="653" y="-99.8" font-family="Times,serif" font-size="14.00" fill="#000000">LockscreenComponent</text>
</g>
<!-- LockscreenComponent&#45;&gt;AuthModule -->
<g id="edge3" class="edge">
<title>LockscreenComponent&#45;&gt;AuthModule</title>
<path fill="none" stroke="#000000" d="M653,-122.027C653,-138.3976 653,-160 653,-160 653,-160 556.7894,-160 556.7894,-160"/>
<polygon fill="#000000" stroke="#000000" points="556.7895,-156.5001 546.7894,-160 556.7894,-163.5001 556.7895,-156.5001"/>
</g>
<!-- SigninComponent -->
<g id="node4" class="node">
<title>SigninComponent</title>
<polygon fill="#ffffb3" stroke="#000000" points="561.8962,-122 444.1038,-122 444.1038,-86 561.8962,-86 561.8962,-122"/>
<text text-anchor="middle" x="503" y="-99.8" font-family="Times,serif" font-size="14.00" fill="#000000">SigninComponent</text>
</g>
<!-- SigninComponent&#45;&gt;AuthModule -->
<g id="edge4" class="edge">
<title>SigninComponent&#45;&gt;AuthModule</title>
<path fill="none" stroke="#000000" d="M503,-122.1061C503,-122.1061 503,-140.991 503,-140.991"/>
<polygon fill="#000000" stroke="#000000" points="499.5001,-140.9909 503,-150.991 506.5001,-140.991 499.5001,-140.9909"/>
</g>
<!-- SignupComponent -->
<g id="node5" class="node">
<title>SignupComponent</title>
<polygon fill="#ffffb3" stroke="#000000" points="426.5056,-122 305.4944,-122 305.4944,-86 426.5056,-86 426.5056,-122"/>
<text text-anchor="middle" x="366" y="-99.8" font-family="Times,serif" font-size="14.00" fill="#000000">SignupComponent</text>
</g>
<!-- SignupComponent&#45;&gt;AuthModule -->
<g id="edge5" class="edge">
<title>SignupComponent&#45;&gt;AuthModule</title>
<path fill="none" stroke="#000000" d="M366,-122.027C366,-138.3976 366,-160 366,-160 366,-160 449.2757,-160 449.2757,-160"/>
<polygon fill="#000000" stroke="#000000" points="449.2757,-163.5001 459.2757,-160 449.2756,-156.5001 449.2757,-163.5001"/>
</g>
<!-- AuthRoutingModule -->
<g id="node7" class="node">
<title>AuthRoutingModule</title>
<polygon fill="#8dd3c7" stroke="#000000" points="281.1652,-122 278.1652,-126 257.1652,-126 254.1652,-122 148.8348,-122 148.8348,-86 281.1652,-86 281.1652,-122"/>
<text text-anchor="middle" x="215" y="-99.8" font-family="Times,serif" font-size="14.00" fill="#000000">AuthRoutingModule</text>
</g>
<!-- AuthRoutingModule&#45;&gt;AuthModule -->
<g id="edge6" class="edge">
<title>AuthRoutingModule&#45;&gt;AuthModule</title>
<path fill="none" stroke="#000000" d="M215,-122.1061C215,-141.3391 215,-169 215,-169 215,-169 449.259,-169 449.259,-169"/>
<polygon fill="#000000" stroke="#000000" points="449.259,-172.5001 459.259,-169 449.259,-165.5001 449.259,-172.5001"/>
</g>
<!-- MaterialModule -->
<g id="node8" class="node">
<title>MaterialModule</title>
<polygon fill="#8dd3c7" stroke="#000000" points="130.4706,-122 127.4706,-126 106.4706,-126 103.4706,-122 23.5294,-122 23.5294,-86 130.4706,-86 130.4706,-122"/>
<text text-anchor="middle" x="77" y="-99.8" font-family="Times,serif" font-size="14.00" fill="#000000">MaterialModule</text>
</g>
<!-- MaterialModule&#45;&gt;AuthModule -->
<g id="edge7" class="edge">
<title>MaterialModule&#45;&gt;AuthModule</title>
<path fill="none" stroke="#000000" d="M77,-122.2921C77,-144.2057 77,-178 77,-178 77,-178 449.4125,-178 449.4125,-178"/>
<polygon fill="#000000" stroke="#000000" points="449.4125,-181.5001 459.4125,-178 449.4125,-174.5001 449.4125,-181.5001"/>
</g>
</g>
</svg>
