<?xml version="1.0" encoding="UTF-8" standalone="no"?>
<!DOCTYPE svg PUBLIC "-//W3C//DTD SVG 1.1//EN"
 "http://www.w3.org/Graphics/SVG/1.1/DTD/svg11.dtd">
<!-- Generated by graphviz version 2.40.1 (20161225.0304)
 -->
<!-- Title: dependencies Pages: 1 -->
<svg width="504pt" height="211pt"
 viewBox="0.00 0.00 504.00 211.00" xmlns="http://www.w3.org/2000/svg" xmlns:xlink="http://www.w3.org/1999/xlink">
<g id="graph0" class="graph" transform="scale(1 1) rotate(0) translate(4 207)">
<title>dependencies</title>
<polygon fill="#ffffff" stroke="transparent" points="-4,4 -4,-207 500,-207 500,4 -4,4"/>
<text text-anchor="start" x="227.0091" y="-42.4" font-family="sans-serif" font-weight="bold" font-size="14.00" fill="#000000">Legend</text>
<polygon fill="#ffffb3" stroke="transparent" points="14,-10 14,-30 34,-30 34,-10 14,-10"/>
<text text-anchor="start" x="37.629" y="-15.4" font-family="sans-serif" font-size="14.00" fill="#000000"> &#160;Declarations</text>
<polygon fill="#8dd3c7" stroke="transparent" points="127,-10 127,-30 147,-30 147,-10 127,-10"/>
<text text-anchor="start" x="150.7251" y="-15.4" font-family="sans-serif" font-size="14.00" fill="#000000"> &#160;Module</text>
<polygon fill="#80b1d3" stroke="transparent" points="213,-10 213,-30 233,-30 233,-10 213,-10"/>
<text text-anchor="start" x="236.7812" y="-15.4" font-family="sans-serif" font-size="14.00" fill="#000000"> &#160;Bootstrap</text>
<polygon fill="#fdb462" stroke="transparent" points="310,-10 310,-30 330,-30 330,-10 310,-10"/>
<text text-anchor="start" x="333.6732" y="-15.4" font-family="sans-serif" font-size="14.00" fill="#000000"> &#160;Providers</text>
<polygon fill="#fb8072" stroke="transparent" points="406,-10 406,-30 426,-30 426,-10 406,-10"/>
<text text-anchor="start" x="429.7258" y="-15.4" font-family="sans-serif" font-size="14.00" fill="#000000"> &#160;Exports</text>
<g id="clust1" class="cluster">
<title>cluster_AuthModule</title>
<polygon fill="none" stroke="#000000" stroke-dasharray="1,5" points="27.5,-70 27.5,-195 468.5,-195 468.5,-70 27.5,-70"/>
</g>
<g id="clust2" class="cluster">
<title>cluster_AuthModule_declarations</title>
<polygon fill="none" stroke="#000000" points="316.5,-78 316.5,-130 460.5,-130 460.5,-78 316.5,-78"/>
</g>
<g id="clust4" class="cluster">
<title>cluster_AuthModule_imports</title>
<polygon fill="none" stroke="#000000" points="35.5,-78 35.5,-130 308.5,-130 308.5,-78 35.5,-78"/>
</g>
<!-- ConfirmComponent -->
<g id="node1" class="node">
<title>ConfirmComponent</title>
<polygon fill="#ffffb3" stroke="#000000" points="452.7716,-122 324.2284,-122 324.2284,-86 452.7716,-86 452.7716,-122"/>
<text text-anchor="middle" x="388.5" y="-99.8" font-family="Times,serif" font-size="14.00" fill="#000000">ConfirmComponent</text>
</g>
<!-- AuthModule -->
<g id="node2" class="node">
<title>AuthModule</title>
<polygon fill="#8dd3c7" stroke="#000000" points="278.0482,-187 275.0482,-191 254.0482,-191 251.0482,-187 190.9518,-187 190.9518,-151 278.0482,-151 278.0482,-187"/>
<text text-anchor="middle" x="234.5" y="-164.8" font-family="Times,serif" font-size="14.00" fill="#000000">AuthModule</text>
</g>
<!-- ConfirmComponent&#45;&gt;AuthModule -->
<g id="edge1" class="edge">
<title>ConfirmComponent&#45;&gt;AuthModule</title>
<path fill="none" stroke="#000000" d="M388.5,-122.1061C388.5,-141.3391 388.5,-169 388.5,-169 388.5,-169 288.2183,-169 288.2183,-169"/>
<polygon fill="#000000" stroke="#000000" points="288.2183,-165.5001 278.2183,-169 288.2183,-172.5001 288.2183,-165.5001"/>
</g>
<!-- AuthRoutingModule -->
<g id="node3" class="node">
<title>AuthRoutingModule</title>
<polygon fill="#8dd3c7" stroke="#000000" points="300.6652,-122 297.6652,-126 276.6652,-126 273.6652,-122 168.3348,-122 168.3348,-86 300.6652,-86 300.6652,-122"/>
<text text-anchor="middle" x="234.5" y="-99.8" font-family="Times,serif" font-size="14.00" fill="#000000">AuthRoutingModule</text>
</g>
<!-- AuthRoutingModule&#45;&gt;AuthModule -->
<g id="edge2" class="edge">
<title>AuthRoutingModule&#45;&gt;AuthModule</title>
<path fill="none" stroke="#000000" d="M234.5,-122.1061C234.5,-122.1061 234.5,-140.991 234.5,-140.991"/>
<polygon fill="#000000" stroke="#000000" points="231.0001,-140.9909 234.5,-150.991 238.0001,-140.991 231.0001,-140.9909"/>
</g>
<!-- MaterialModule -->
<g id="node4" class="node">
<title>MaterialModule</title>
<polygon fill="#8dd3c7" stroke="#000000" points="149.9706,-122 146.9706,-126 125.9706,-126 122.9706,-122 43.0294,-122 43.0294,-86 149.9706,-86 149.9706,-122"/>
<text text-anchor="middle" x="96.5" y="-99.8" font-family="Times,serif" font-size="14.00" fill="#000000">MaterialModule</text>
</g>
<!-- MaterialModule&#45;&gt;AuthModule -->
<g id="edge3" class="edge">
<title>MaterialModule&#45;&gt;AuthModule</title>
<path fill="none" stroke="#000000" d="M96.5,-122.1061C96.5,-141.3391 96.5,-169 96.5,-169 96.5,-169 180.8359,-169 180.8359,-169"/>
<polygon fill="#000000" stroke="#000000" points="180.836,-172.5001 190.8359,-169 180.8359,-165.5001 180.836,-172.5001"/>
</g>
</g>
</svg>
