<?xml version="1.0" encoding="UTF-8" standalone="no"?>
<!DOCTYPE svg PUBLIC "-//W3C//DTD SVG 1.1//EN"
 "http://www.w3.org/Graphics/SVG/1.1/DTD/svg11.dtd">
<!-- Generated by graphviz version 2.40.1 (20161225.0304)
 -->
<!-- Title: dependencies Pages: 1 -->
<svg width="1122pt" height="211pt"
 viewBox="0.00 0.00 1122.00 211.00" xmlns="http://www.w3.org/2000/svg" xmlns:xlink="http://www.w3.org/1999/xlink">
<g id="graph0" class="graph" transform="scale(1 1) rotate(0) translate(4 207)">
<title>dependencies</title>
<polygon fill="#ffffff" stroke="transparent" points="-4,4 -4,-207 1118,-207 1118,4 -4,4"/>
<text text-anchor="start" x="536.0091" y="-42.4" font-family="sans-serif" font-weight="bold" font-size="14.00" fill="#000000">Legend</text>
<polygon fill="#ffffb3" stroke="transparent" points="323,-10 323,-30 343,-30 343,-10 323,-10"/>
<text text-anchor="start" x="346.629" y="-15.4" font-family="sans-serif" font-size="14.00" fill="#000000"> &#160;Declarations</text>
<polygon fill="#8dd3c7" stroke="transparent" points="436,-10 436,-30 456,-30 456,-10 436,-10"/>
<text text-anchor="start" x="459.7251" y="-15.4" font-family="sans-serif" font-size="14.00" fill="#000000"> &#160;Module</text>
<polygon fill="#80b1d3" stroke="transparent" points="522,-10 522,-30 542,-30 542,-10 522,-10"/>
<text text-anchor="start" x="545.7812" y="-15.4" font-family="sans-serif" font-size="14.00" fill="#000000"> &#160;Bootstrap</text>
<polygon fill="#fdb462" stroke="transparent" points="619,-10 619,-30 639,-30 639,-10 619,-10"/>
<text text-anchor="start" x="642.6732" y="-15.4" font-family="sans-serif" font-size="14.00" fill="#000000"> &#160;Providers</text>
<polygon fill="#fb8072" stroke="transparent" points="715,-10 715,-30 735,-30 735,-10 715,-10"/>
<text text-anchor="start" x="738.7258" y="-15.4" font-family="sans-serif" font-size="14.00" fill="#000000"> &#160;Exports</text>
<g id="clust1" class="cluster">
<title>cluster_ErrorsModule</title>
<polygon fill="none" stroke="#000000" stroke-dasharray="1,5" points="8,-70 8,-195 1106,-195 1106,-70 8,-70"/>
</g>
<g id="clust2" class="cluster">
<title>cluster_ErrorsModule_declarations</title>
<polygon fill="none" stroke="#000000" points="304,-78 304,-130 1098,-130 1098,-78 304,-78"/>
</g>
<g id="clust8" class="cluster">
<title>cluster_ErrorsModule_imports</title>
<polygon fill="none" stroke="#000000" points="16,-78 16,-130 296,-130 296,-78 16,-78"/>
</g>
<!-- AuthLayoutComponent -->
<g id="node1" class="node">
<title>AuthLayoutComponent</title>
<polygon fill="#ffffb3" stroke="#000000" points="1090.4874,-122 941.5126,-122 941.5126,-86 1090.4874,-86 1090.4874,-122"/>
<text text-anchor="middle" x="1016" y="-99.8" font-family="Times,serif" font-size="14.00" fill="#000000">AuthLayoutComponent</text>
</g>
<!-- ErrorsModule -->
<g id="node6" class="node">
<title>ErrorsModule</title>
<polygon fill="#8dd3c7" stroke="#000000" points="557.03,-187 554.03,-191 533.03,-191 530.03,-187 462.97,-187 462.97,-151 557.03,-151 557.03,-187"/>
<text text-anchor="middle" x="510" y="-164.8" font-family="Times,serif" font-size="14.00" fill="#000000">ErrorsModule</text>
</g>
<!-- AuthLayoutComponent&#45;&gt;ErrorsModule -->
<g id="edge1" class="edge">
<title>AuthLayoutComponent&#45;&gt;ErrorsModule</title>
<path fill="none" stroke="#000000" d="M1016,-122.2921C1016,-144.2057 1016,-178 1016,-178 1016,-178 567.1489,-178 567.1489,-178"/>
<polygon fill="#000000" stroke="#000000" points="567.1489,-174.5001 557.1489,-178 567.1488,-181.5001 567.1489,-174.5001"/>
</g>
<!-- ForgotPasswordComponent -->
<g id="node2" class="node">
<title>ForgotPasswordComponent</title>
<polygon fill="#ffffb3" stroke="#000000" points="923.3201,-122 750.6799,-122 750.6799,-86 923.3201,-86 923.3201,-122"/>
<text text-anchor="middle" x="837" y="-99.8" font-family="Times,serif" font-size="14.00" fill="#000000">ForgotPasswordComponent</text>
</g>
<!-- ForgotPasswordComponent&#45;&gt;ErrorsModule -->
<g id="edge2" class="edge">
<title>ForgotPasswordComponent&#45;&gt;ErrorsModule</title>
<path fill="none" stroke="#000000" d="M837,-122.1061C837,-141.3391 837,-169 837,-169 837,-169 567.1994,-169 567.1994,-169"/>
<polygon fill="#000000" stroke="#000000" points="567.1994,-165.5001 557.1994,-169 567.1993,-172.5001 567.1994,-165.5001"/>
</g>
<!-- LockscreenComponent -->
<g id="node3" class="node">
<title>LockscreenComponent</title>
<polygon fill="#ffffb3" stroke="#000000" points="732.8487,-122 587.1513,-122 587.1513,-86 732.8487,-86 732.8487,-122"/>
<text text-anchor="middle" x="660" y="-99.8" font-family="Times,serif" font-size="14.00" fill="#000000">LockscreenComponent</text>
</g>
<!-- LockscreenComponent&#45;&gt;ErrorsModule -->
<g id="edge3" class="edge">
<title>LockscreenComponent&#45;&gt;ErrorsModule</title>
<path fill="none" stroke="#000000" d="M660,-122.027C660,-138.3976 660,-160 660,-160 660,-160 567.0494,-160 567.0494,-160"/>
<polygon fill="#000000" stroke="#000000" points="567.0494,-156.5001 557.0494,-160 567.0493,-163.5001 567.0494,-156.5001"/>
</g>
<!-- SigninComponent -->
<g id="node4" class="node">
<title>SigninComponent</title>
<polygon fill="#ffffb3" stroke="#000000" points="568.8962,-122 451.1038,-122 451.1038,-86 568.8962,-86 568.8962,-122"/>
<text text-anchor="middle" x="510" y="-99.8" font-family="Times,serif" font-size="14.00" fill="#000000">SigninComponent</text>
</g>
<!-- SigninComponent&#45;&gt;ErrorsModule -->
<g id="edge4" class="edge">
<title>SigninComponent&#45;&gt;ErrorsModule</title>
<path fill="none" stroke="#000000" d="M510,-122.1061C510,-122.1061 510,-140.991 510,-140.991"/>
<polygon fill="#000000" stroke="#000000" points="506.5001,-140.9909 510,-150.991 513.5001,-140.991 506.5001,-140.9909"/>
</g>
<!-- SignupComponent -->
<g id="node5" class="node">
<title>SignupComponent</title>
<polygon fill="#ffffb3" stroke="#000000" points="433.5056,-122 312.4944,-122 312.4944,-86 433.5056,-86 433.5056,-122"/>
<text text-anchor="middle" x="373" y="-99.8" font-family="Times,serif" font-size="14.00" fill="#000000">SignupComponent</text>
</g>
<!-- SignupComponent&#45;&gt;ErrorsModule -->
<g id="edge5" class="edge">
<title>SignupComponent&#45;&gt;ErrorsModule</title>
<path fill="none" stroke="#000000" d="M373,-122.027C373,-138.3976 373,-160 373,-160 373,-160 452.8524,-160 452.8524,-160"/>
<polygon fill="#000000" stroke="#000000" points="452.8524,-163.5001 462.8524,-160 452.8523,-156.5001 452.8524,-163.5001"/>
</g>
<!-- ErrorsRoutingModule -->
<g id="node7" class="node">
<title>ErrorsRoutingModule</title>
<polygon fill="#8dd3c7" stroke="#000000" points="287.647,-122 284.647,-126 263.647,-126 260.647,-122 148.353,-122 148.353,-86 287.647,-86 287.647,-122"/>
<text text-anchor="middle" x="218" y="-99.8" font-family="Times,serif" font-size="14.00" fill="#000000">ErrorsRoutingModule</text>
</g>
<!-- ErrorsRoutingModule&#45;&gt;ErrorsModule -->
<g id="edge6" class="edge">
<title>ErrorsRoutingModule&#45;&gt;ErrorsModule</title>
<path fill="none" stroke="#000000" d="M218,-122.1061C218,-141.3391 218,-169 218,-169 218,-169 452.7606,-169 452.7606,-169"/>
<polygon fill="#000000" stroke="#000000" points="452.7607,-172.5001 462.7606,-169 452.7606,-165.5001 452.7607,-172.5001"/>
</g>
<!-- MaterialModule -->
<g id="node8" class="node">
<title>MaterialModule</title>
<polygon fill="#8dd3c7" stroke="#000000" points="130.4706,-122 127.4706,-126 106.4706,-126 103.4706,-122 23.5294,-122 23.5294,-86 130.4706,-86 130.4706,-122"/>
<text text-anchor="middle" x="77" y="-99.8" font-family="Times,serif" font-size="14.00" fill="#000000">MaterialModule</text>
</g>
<!-- MaterialModule&#45;&gt;ErrorsModule -->
<g id="edge7" class="edge">
<title>MaterialModule&#45;&gt;ErrorsModule</title>
<path fill="none" stroke="#000000" d="M77,-122.2921C77,-144.2057 77,-178 77,-178 77,-178 452.8371,-178 452.8371,-178"/>
<polygon fill="#000000" stroke="#000000" points="452.8372,-181.5001 462.8371,-178 452.8371,-174.5001 452.8372,-181.5001"/>
</g>
</g>
</svg>
