<?xml version="1.0" encoding="UTF-8" standalone="no"?>
<!DOCTYPE svg PUBLIC "-//W3C//DTD SVG 1.1//EN"
 "http://www.w3.org/Graphics/SVG/1.1/DTD/svg11.dtd">
<!-- Generated by graphviz version 2.40.1 (20161225.0304)
 -->
<!-- Title: dependencies Pages: 1 -->
<svg width="504pt" height="211pt"
 viewBox="0.00 0.00 504.00 211.00" xmlns="http://www.w3.org/2000/svg" xmlns:xlink="http://www.w3.org/1999/xlink">
<g id="graph0" class="graph" transform="scale(1 1) rotate(0) translate(4 207)">
<title>dependencies</title>
<polygon fill="#ffffff" stroke="transparent" points="-4,4 -4,-207 500,-207 500,4 -4,4"/>
<text text-anchor="start" x="227.0091" y="-42.4" font-family="sans-serif" font-weight="bold" font-size="14.00" fill="#000000">Legend</text>
<polygon fill="#ffffb3" stroke="transparent" points="14,-10 14,-30 34,-30 34,-10 14,-10"/>
<text text-anchor="start" x="37.629" y="-15.4" font-family="sans-serif" font-size="14.00" fill="#000000"> &#160;Declarations</text>
<polygon fill="#8dd3c7" stroke="transparent" points="127,-10 127,-30 147,-30 147,-10 127,-10"/>
<text text-anchor="start" x="150.7251" y="-15.4" font-family="sans-serif" font-size="14.00" fill="#000000"> &#160;Module</text>
<polygon fill="#80b1d3" stroke="transparent" points="213,-10 213,-30 233,-30 233,-10 213,-10"/>
<text text-anchor="start" x="236.7812" y="-15.4" font-family="sans-serif" font-size="14.00" fill="#000000"> &#160;Bootstrap</text>
<polygon fill="#fdb462" stroke="transparent" points="310,-10 310,-30 330,-30 330,-10 310,-10"/>
<text text-anchor="start" x="333.6732" y="-15.4" font-family="sans-serif" font-size="14.00" fill="#000000"> &#160;Providers</text>
<polygon fill="#fb8072" stroke="transparent" points="406,-10 406,-30 426,-30 426,-10 406,-10"/>
<text text-anchor="start" x="429.7258" y="-15.4" font-family="sans-serif" font-size="14.00" fill="#000000"> &#160;Exports</text>
<g id="clust1" class="cluster">
<title>cluster_ErrorsModule</title>
<polygon fill="none" stroke="#000000" stroke-dasharray="1,5" points="24,-70 24,-195 472,-195 472,-70 24,-70"/>
</g>
<g id="clust2" class="cluster">
<title>cluster_ErrorsModule_declarations</title>
<polygon fill="none" stroke="#000000" points="320,-78 320,-130 464,-130 464,-78 320,-78"/>
</g>
<g id="clust4" class="cluster">
<title>cluster_ErrorsModule_imports</title>
<polygon fill="none" stroke="#000000" points="32,-78 32,-130 312,-130 312,-78 32,-78"/>
</g>
<!-- ConfirmComponent -->
<g id="node1" class="node">
<title>ConfirmComponent</title>
<polygon fill="#ffffb3" stroke="#000000" points="456.2716,-122 327.7284,-122 327.7284,-86 456.2716,-86 456.2716,-122"/>
<text text-anchor="middle" x="392" y="-99.8" font-family="Times,serif" font-size="14.00" fill="#000000">ConfirmComponent</text>
</g>
<!-- ErrorsModule -->
<g id="node2" class="node">
<title>ErrorsModule</title>
<polygon fill="#8dd3c7" stroke="#000000" points="281.03,-187 278.03,-191 257.03,-191 254.03,-187 186.97,-187 186.97,-151 281.03,-151 281.03,-187"/>
<text text-anchor="middle" x="234" y="-164.8" font-family="Times,serif" font-size="14.00" fill="#000000">ErrorsModule</text>
</g>
<!-- ConfirmComponent&#45;&gt;ErrorsModule -->
<g id="edge1" class="edge">
<title>ConfirmComponent&#45;&gt;ErrorsModule</title>
<path fill="none" stroke="#000000" d="M392,-122.1061C392,-141.3391 392,-169 392,-169 392,-169 291.4052,-169 291.4052,-169"/>
<polygon fill="#000000" stroke="#000000" points="291.4052,-165.5001 281.4052,-169 291.4052,-172.5001 291.4052,-165.5001"/>
</g>
<!-- ErrorsRoutingModule -->
<g id="node3" class="node">
<title>ErrorsRoutingModule</title>
<polygon fill="#8dd3c7" stroke="#000000" points="303.647,-122 300.647,-126 279.647,-126 276.647,-122 164.353,-122 164.353,-86 303.647,-86 303.647,-122"/>
<text text-anchor="middle" x="234" y="-99.8" font-family="Times,serif" font-size="14.00" fill="#000000">ErrorsRoutingModule</text>
</g>
<!-- ErrorsRoutingModule&#45;&gt;ErrorsModule -->
<g id="edge2" class="edge">
<title>ErrorsRoutingModule&#45;&gt;ErrorsModule</title>
<path fill="none" stroke="#000000" d="M234,-122.1061C234,-122.1061 234,-140.991 234,-140.991"/>
<polygon fill="#000000" stroke="#000000" points="230.5001,-140.9909 234,-150.991 237.5001,-140.991 230.5001,-140.9909"/>
</g>
<!-- MaterialModule -->
<g id="node4" class="node">
<title>MaterialModule</title>
<polygon fill="#8dd3c7" stroke="#000000" points="146.4706,-122 143.4706,-126 122.4706,-126 119.4706,-122 39.5294,-122 39.5294,-86 146.4706,-86 146.4706,-122"/>
<text text-anchor="middle" x="93" y="-99.8" font-family="Times,serif" font-size="14.00" fill="#000000">MaterialModule</text>
</g>
<!-- MaterialModule&#45;&gt;ErrorsModule -->
<g id="edge3" class="edge">
<title>MaterialModule&#45;&gt;ErrorsModule</title>
<path fill="none" stroke="#000000" d="M93,-122.1061C93,-141.3391 93,-169 93,-169 93,-169 176.6568,-169 176.6568,-169"/>
<polygon fill="#000000" stroke="#000000" points="176.6568,-172.5001 186.6568,-169 176.6568,-165.5001 176.6568,-172.5001"/>
</g>
</g>
</svg>
