<?xml version="1.0" encoding="UTF-8" standalone="no"?>
<!DOCTYPE svg PUBLIC "-//W3C//DTD SVG 1.1//EN"
 "http://www.w3.org/Graphics/SVG/1.1/DTD/svg11.dtd">
<!-- Generated by graphviz version 2.40.1 (20161225.0304)
 -->
<!-- Title: dependencies Pages: 1 -->
<svg width="1768pt" height="428pt"
 viewBox="0.00 0.00 1768.00 428.00" xmlns="http://www.w3.org/2000/svg" xmlns:xlink="http://www.w3.org/1999/xlink">
<g id="graph0" class="graph" transform="scale(1 1) rotate(0) translate(4 424)">
<title>dependencies</title>
<polygon fill="#ffffff" stroke="transparent" points="-4,4 -4,-424 1764,-424 1764,4 -4,4"/>
<text text-anchor="start" x="859.0091" y="-42.4" font-family="sans-serif" font-weight="bold" font-size="14.00" fill="#000000">Legend</text>
<polygon fill="#ffffb3" stroke="transparent" points="646,-10 646,-30 666,-30 666,-10 646,-10"/>
<text text-anchor="start" x="669.629" y="-15.4" font-family="sans-serif" font-size="14.00" fill="#000000"> &#160;Declarations</text>
<polygon fill="#8dd3c7" stroke="transparent" points="759,-10 759,-30 779,-30 779,-10 759,-10"/>
<text text-anchor="start" x="782.7251" y="-15.4" font-family="sans-serif" font-size="14.00" fill="#000000"> &#160;Module</text>
<polygon fill="#80b1d3" stroke="transparent" points="845,-10 845,-30 865,-30 865,-10 845,-10"/>
<text text-anchor="start" x="868.7812" y="-15.4" font-family="sans-serif" font-size="14.00" fill="#000000"> &#160;Bootstrap</text>
<polygon fill="#fdb462" stroke="transparent" points="942,-10 942,-30 962,-30 962,-10 942,-10"/>
<text text-anchor="start" x="965.6732" y="-15.4" font-family="sans-serif" font-size="14.00" fill="#000000"> &#160;Providers</text>
<polygon fill="#fb8072" stroke="transparent" points="1038,-10 1038,-30 1058,-30 1058,-10 1038,-10"/>
<text text-anchor="start" x="1061.7258" y="-15.4" font-family="sans-serif" font-size="14.00" fill="#000000"> &#160;Exports</text>
<g id="clust1" class="cluster">
<title>cluster_AppModule</title>
<polygon fill="none" stroke="#000000" stroke-dasharray="1,5" points="331,-214 331,-412 977,-412 977,-214 331,-214"/>
</g>
<g id="clust2" class="cluster">
<title>cluster_AppModule_declarations</title>
<polygon fill="none" stroke="#000000" points="847,-222 847,-274 969,-274 969,-222 847,-222"/>
</g>
<g id="clust4" class="cluster">
<title>cluster_AppModule_imports</title>
<polygon fill="none" stroke="#000000" points="339,-222 339,-274 839,-274 839,-222 339,-222"/>
</g>
<g id="clust6" class="cluster">
<title>cluster_AppModule_bootstrap</title>
<polygon fill="none" stroke="#000000" points="584,-352 584,-404 708,-404 708,-352 584,-352"/>
</g>
<g id="clust14" class="cluster">
<title>cluster_AuthModule</title>
<polygon fill="none" stroke="#000000" stroke-dasharray="1,5" points="308,-70 308,-206 624,-206 624,-70 308,-70"/>
</g>
<g id="clust15" class="cluster">
<title>cluster_AuthModule_declarations</title>
<polygon fill="none" stroke="#000000" points="472,-78 472,-130 616,-130 616,-78 472,-78"/>
</g>
<g id="clust17" class="cluster">
<title>cluster_AuthModule_imports</title>
<polygon fill="none" stroke="#000000" points="316,-78 316,-198 464,-198 464,-78 316,-78"/>
</g>
<g id="clust27" class="cluster">
<title>cluster_CoreModule</title>
<polygon fill="none" stroke="#000000" stroke-dasharray="1,5" points="8,-146 8,-282 300,-282 300,-146 8,-146"/>
</g>
<g id="clust31" class="cluster">
<title>cluster_CoreModule_exports</title>
<polygon fill="none" stroke="#000000" points="16,-222 16,-274 292,-274 292,-222 16,-222"/>
</g>
<g id="clust34" class="cluster">
<title>cluster_DashboardModule</title>
<polygon fill="none" stroke="#000000" stroke-dasharray="1,5" points="692,-138 692,-206 1572,-206 1572,-138 692,-138"/>
</g>
<g id="clust37" class="cluster">
<title>cluster_DashboardModule_imports</title>
<polygon fill="none" stroke="#000000" points="1266,-146 1266,-198 1564,-198 1564,-146 1266,-146"/>
</g>
<g id="clust38" class="cluster">
<title>cluster_DashboardModule_exports</title>
<polygon fill="none" stroke="#000000" points="870,-146 870,-198 1258,-198 1258,-146 870,-146"/>
</g>
<g id="clust40" class="cluster">
<title>cluster_DashboardModule_providers</title>
<polygon fill="none" stroke="#000000" points="700,-146 700,-198 862,-198 862,-146 700,-146"/>
</g>
<g id="clust47" class="cluster">
<title>cluster_ErrorsModule</title>
<polygon fill="none" stroke="#000000" stroke-dasharray="1,5" points="1580,-138 1580,-206 1752,-206 1752,-138 1580,-138"/>
</g>
<g id="clust50" class="cluster">
<title>cluster_ErrorsModule_imports</title>
<polygon fill="none" stroke="#000000" points="1588,-146 1588,-198 1744,-198 1744,-146 1588,-146"/>
</g>
<!-- AppComponent -->
<g id="node1" class="node">
<title>AppComponent</title>
<polygon fill="#ffffb3" stroke="#000000" points="960.9399,-266 855.0601,-266 855.0601,-230 960.9399,-230 960.9399,-266"/>
<text text-anchor="middle" x="908" y="-243.8" font-family="Times,serif" font-size="14.00" fill="#000000">AppComponent</text>
</g>
<!-- AppModule -->
<g id="node2" class="node">
<title>AppModule</title>
<polygon fill="#8dd3c7" stroke="#000000" points="687.6571,-331 684.6571,-335 663.6571,-335 660.6571,-331 604.3429,-331 604.3429,-295 687.6571,-295 687.6571,-331"/>
<text text-anchor="middle" x="646" y="-308.8" font-family="Times,serif" font-size="14.00" fill="#000000">AppModule</text>
</g>
<!-- AppComponent&#45;&gt;AppModule -->
<g id="edge1" class="edge">
<title>AppComponent&#45;&gt;AppModule</title>
<path fill="none" stroke="#000000" d="M908,-266.2843C908,-287.3211 908,-319 908,-319 908,-319 697.8044,-319 697.8044,-319"/>
<polygon fill="#000000" stroke="#000000" points="697.8044,-315.5001 687.8044,-319 697.8044,-322.5001 697.8044,-315.5001"/>
</g>
<!-- AppComponent  -->
<g id="node7" class="node">
<title>AppComponent </title>
<polygon fill="#80b1d3" stroke="#000000" points="700.439,-396 591.561,-396 591.561,-360 700.439,-360 700.439,-396"/>
<text text-anchor="middle" x="646" y="-373.8" font-family="Times,serif" font-size="14.00" fill="#000000">AppComponent </text>
</g>
<!-- AppModule&#45;&gt;AppComponent  -->
<g id="edge6" class="edge">
<title>AppModule&#45;&gt;AppComponent </title>
<path fill="none" stroke="#000000" stroke-dasharray="1,5" d="M646,-331.1061C646,-331.1061 646,-349.991 646,-349.991"/>
<polygon fill="#000000" stroke="#000000" points="642.5001,-349.9909 646,-359.991 649.5001,-349.991 642.5001,-349.9909"/>
</g>
<!-- AppRoutingModule -->
<g id="node3" class="node">
<title>AppRoutingModule</title>
<polygon fill="#8dd3c7" stroke="#000000" points="475.2744,-266 472.2744,-270 451.2744,-270 448.2744,-266 346.7256,-266 346.7256,-230 475.2744,-230 475.2744,-266"/>
<text text-anchor="middle" x="411" y="-243.8" font-family="Times,serif" font-size="14.00" fill="#000000">AppRoutingModule</text>
</g>
<!-- AppRoutingModule&#45;&gt;AppModule -->
<g id="edge2" class="edge">
<title>AppRoutingModule&#45;&gt;AppModule</title>
<path fill="none" stroke="#000000" d="M411,-266.2843C411,-287.3211 411,-319 411,-319 411,-319 594.2575,-319 594.2575,-319"/>
<polygon fill="#000000" stroke="#000000" points="594.2575,-322.5001 604.2575,-319 594.2575,-315.5001 594.2575,-322.5001"/>
</g>
<!-- AuthModule -->
<g id="node4" class="node">
<title>AuthModule</title>
<polygon fill="#8dd3c7" stroke="#000000" points="580.5482,-266 577.5482,-270 556.5482,-270 553.5482,-266 493.4518,-266 493.4518,-230 580.5482,-230 580.5482,-266"/>
<text text-anchor="middle" x="537" y="-243.8" font-family="Times,serif" font-size="14.00" fill="#000000">AuthModule</text>
</g>
<!-- AuthModule&#45;&gt;AppModule -->
<g id="edge3" class="edge">
<title>AuthModule&#45;&gt;AppModule</title>
<path fill="none" stroke="#000000" d="M537,-266.0225C537,-283.3734 537,-307 537,-307 537,-307 594.1695,-307 594.1695,-307"/>
<polygon fill="#000000" stroke="#000000" points="594.1695,-310.5001 604.1695,-307 594.1695,-303.5001 594.1695,-310.5001"/>
</g>
<!-- DashboardModule -->
<g id="node5" class="node">
<title>DashboardModule</title>
<polygon fill="#8dd3c7" stroke="#000000" points="831.191,-266 828.191,-270 807.191,-270 804.191,-266 710.809,-266 710.809,-230 831.191,-230 831.191,-266"/>
<text text-anchor="middle" x="771" y="-243.8" font-family="Times,serif" font-size="14.00" fill="#000000">DashboardModule</text>
</g>
<!-- DashboardModule&#45;&gt;AppModule -->
<g id="edge4" class="edge">
<title>DashboardModule&#45;&gt;AppModule</title>
<path fill="none" stroke="#000000" d="M771,-266.0225C771,-283.3734 771,-307 771,-307 771,-307 697.9709,-307 697.9709,-307"/>
<polygon fill="#000000" stroke="#000000" points="697.971,-303.5001 687.9709,-307 697.9709,-310.5001 697.971,-303.5001"/>
</g>
<!-- DashboardLayoutComponent  -->
<g id="node16" class="node">
<title>DashboardLayoutComponent </title>
<polygon fill="#fb8072" stroke="#000000" points="1249.6312,-190 1064.3688,-190 1064.3688,-154 1249.6312,-154 1249.6312,-190"/>
<text text-anchor="middle" x="1157" y="-167.8" font-family="Times,serif" font-size="14.00" fill="#000000">DashboardLayoutComponent </text>
</g>
<!-- DashboardModule&#45;&gt;DashboardLayoutComponent  -->
<g id="edge20" class="edge">
<title>DashboardModule&#45;&gt;DashboardLayoutComponent </title>
<path fill="none" stroke="#000000" stroke-dasharray="5,2" d="M813.9253,-229.68C813.9253,-221.2117 813.9253,-213 813.9253,-213 813.9253,-213 1157,-213 1157,-213 1157,-213 1157,-200.1025 1157,-200.1025"/>
<polygon fill="#000000" stroke="#000000" points="1160.5001,-200.1025 1157,-190.1025 1153.5001,-200.1026 1160.5001,-200.1025"/>
</g>
<!-- DashboardRoutingModule  -->
<g id="node17" class="node">
<title>DashboardRoutingModule </title>
<polygon fill="#fb8072" stroke="#000000" points="1046.3087,-190 877.6913,-190 877.6913,-154 1046.3087,-154 1046.3087,-190"/>
<text text-anchor="middle" x="962" y="-167.8" font-family="Times,serif" font-size="14.00" fill="#000000">DashboardRoutingModule </text>
</g>
<!-- DashboardModule&#45;&gt;DashboardRoutingModule  -->
<g id="edge21" class="edge">
<title>DashboardModule&#45;&gt;DashboardRoutingModule </title>
<path fill="none" stroke="#000000" stroke-dasharray="5,2" d="M796.7552,-229.8726C796.7552,-219.2891 796.7552,-208 796.7552,-208 796.7552,-208 919.1576,-208 919.1576,-208 919.1576,-208 919.1576,-200.4218 919.1576,-200.4218"/>
<polygon fill="#000000" stroke="#000000" points="922.6577,-200.4218 919.1576,-190.4218 915.6577,-200.4219 922.6577,-200.4218"/>
</g>
<!-- ErrorsModule -->
<g id="node6" class="node">
<title>ErrorsModule</title>
<polygon fill="#8dd3c7" stroke="#000000" points="693.03,-266 690.03,-270 669.03,-270 666.03,-266 598.97,-266 598.97,-230 693.03,-230 693.03,-266"/>
<text text-anchor="middle" x="646" y="-243.8" font-family="Times,serif" font-size="14.00" fill="#000000">ErrorsModule</text>
</g>
<!-- ErrorsModule&#45;&gt;AppModule -->
<g id="edge5" class="edge">
<title>ErrorsModule&#45;&gt;AppModule</title>
<path fill="none" stroke="#000000" d="M646,-266.1061C646,-266.1061 646,-284.991 646,-284.991"/>
<polygon fill="#000000" stroke="#000000" points="642.5001,-284.9909 646,-294.991 649.5001,-284.991 642.5001,-284.9909"/>
</g>
<!-- ConfirmComponent -->
<g id="node8" class="node">
<title>ConfirmComponent</title>
<polygon fill="#ffffb3" stroke="#000000" points="608.2716,-122 479.7284,-122 479.7284,-86 608.2716,-86 608.2716,-122"/>
<text text-anchor="middle" x="544" y="-99.8" font-family="Times,serif" font-size="14.00" fill="#000000">ConfirmComponent</text>
</g>
<!-- ConfirmComponent&#45;&gt;AuthModule -->
<g id="edge7" class="edge">
<title>ConfirmComponent&#45;&gt;AuthModule</title>
<path fill="none" stroke="#000000" d="M558.8868,-122.2377C558.8868,-122.2377 558.8868,-219.9104 558.8868,-219.9104"/>
<polygon fill="#000000" stroke="#000000" points="555.3868,-219.9103 558.8868,-229.9104 562.3868,-219.9104 555.3868,-219.9103"/>
</g>
<!-- ConfirmComponent&#45;&gt;DashboardModule -->
<g id="edge15" class="edge">
<title>ConfirmComponent&#45;&gt;DashboardModule</title>
<path fill="none" stroke="#000000" d="M608.4459,-104C650.6645,-104 698.0678,-104 698.0678,-104 698.0678,-104 698.0678,-242 698.0678,-242 698.0678,-242 700.7716,-242 700.7716,-242"/>
<polygon fill="#000000" stroke="#000000" points="700.7717,-245.5001 710.7716,-242 700.7716,-238.5001 700.7717,-245.5001"/>
</g>
<!-- ConfirmComponent&#45;&gt;ErrorsModule -->
<g id="edge24" class="edge">
<title>ConfirmComponent&#45;&gt;ErrorsModule</title>
<path fill="none" stroke="#000000" d="M605.169,-122.2377C605.169,-122.2377 605.169,-219.9104 605.169,-219.9104"/>
<polygon fill="#000000" stroke="#000000" points="601.6691,-219.9103 605.169,-229.9104 608.6691,-219.9104 601.6691,-219.9103"/>
</g>
<!-- CoreModule -->
<g id="node11" class="node">
<title>CoreModule</title>
<polygon fill="#8dd3c7" stroke="#000000" points="292.2619,-190 289.2619,-194 268.2619,-194 265.2619,-190 205.7381,-190 205.7381,-154 292.2619,-154 292.2619,-190"/>
<text text-anchor="middle" x="249" y="-167.8" font-family="Times,serif" font-size="14.00" fill="#000000">CoreModule</text>
</g>
<!-- ConfirmComponent&#45;&gt;CoreModule -->
<g id="edge11" class="edge">
<title>ConfirmComponent&#45;&gt;CoreModule</title>
<path fill="none" stroke="#000000" d="M486.4204,-122.1944C486.4204,-130.2782 486.4204,-138 486.4204,-138 486.4204,-138 263.4603,-138 263.4603,-138 263.4603,-138 263.4603,-143.8056 263.4603,-143.8056"/>
<polygon fill="#000000" stroke="#000000" points="259.9604,-143.8055 263.4603,-153.8056 266.9604,-143.8056 259.9604,-143.8055"/>
</g>
<!-- AuthRoutingModule -->
<g id="node9" class="node">
<title>AuthRoutingModule</title>
<polygon fill="#8dd3c7" stroke="#000000" points="456.1652,-190 453.1652,-194 432.1652,-194 429.1652,-190 323.8348,-190 323.8348,-154 456.1652,-154 456.1652,-190"/>
<text text-anchor="middle" x="390" y="-167.8" font-family="Times,serif" font-size="14.00" fill="#000000">AuthRoutingModule</text>
</g>
<!-- AuthRoutingModule&#45;&gt;AuthModule -->
<g id="edge8" class="edge">
<title>AuthRoutingModule&#45;&gt;AuthModule</title>
<path fill="none" stroke="#000000" d="M456.2202,-172C486.2308,-172 515.1133,-172 515.1133,-172 515.1133,-172 515.1133,-219.9891 515.1133,-219.9891"/>
<polygon fill="#000000" stroke="#000000" points="511.6133,-219.989 515.1133,-229.9891 518.6133,-219.9891 511.6133,-219.989"/>
</g>
<!-- MaterialModule -->
<g id="node10" class="node">
<title>MaterialModule</title>
<polygon fill="#8dd3c7" stroke="#000000" points="456.4706,-122 453.4706,-126 432.4706,-126 429.4706,-122 349.5294,-122 349.5294,-86 456.4706,-86 456.4706,-122"/>
<text text-anchor="middle" x="403" y="-99.8" font-family="Times,serif" font-size="14.00" fill="#000000">MaterialModule</text>
</g>
<!-- MaterialModule&#45;&gt;AuthModule -->
<g id="edge9" class="edge">
<title>MaterialModule&#45;&gt;AuthModule</title>
<path fill="none" stroke="#000000" d="M385.1206,-122.0439C385.1206,-134.5633 385.1206,-149 385.1206,-149 385.1206,-149 537,-149 537,-149 537,-149 537,-219.8419 537,-219.8419"/>
<polygon fill="#000000" stroke="#000000" points="533.5001,-219.8418 537,-229.8419 540.5001,-219.8419 533.5001,-219.8418"/>
</g>
<!-- MaterialModule&#45;&gt;DashboardModule -->
<g id="edge18" class="edge">
<title>MaterialModule&#45;&gt;DashboardModule</title>
<path fill="none" stroke="#000000" d="M420.7265,-122.2015C420.7265,-128.028 420.7265,-133 420.7265,-133 420.7265,-133 695.6661,-133 695.6661,-133 695.6661,-133 695.6661,-254 695.6661,-254 695.6661,-254 700.5497,-254 700.5497,-254"/>
<polygon fill="#000000" stroke="#000000" points="700.5497,-257.5001 710.5497,-254 700.5496,-250.5001 700.5497,-257.5001"/>
</g>
<!-- MaterialModule&#45;&gt;ErrorsModule -->
<g id="edge26" class="edge">
<title>MaterialModule&#45;&gt;ErrorsModule</title>
<path fill="none" stroke="#000000" d="M402.9236,-122.1274C402.9236,-132.7109 402.9236,-144 402.9236,-144 402.9236,-144 601.9523,-144 601.9523,-144 601.9523,-144 601.9523,-219.8846 601.9523,-219.8846"/>
<polygon fill="#000000" stroke="#000000" points="598.4524,-219.8845 601.9523,-229.8846 605.4524,-219.8846 598.4524,-219.8845"/>
</g>
<!-- MaterialModule&#45;&gt;AuthRoutingModule -->
<g id="edge10" class="edge">
<title>MaterialModule&#45;&gt;AuthRoutingModule</title>
<path fill="none" stroke="#000000" d="M367.3177,-122.2228C367.3177,-122.2228 367.3177,-143.7269 367.3177,-143.7269"/>
<polygon fill="#000000" stroke="#000000" points="363.8177,-143.7269 367.3177,-153.7269 370.8177,-143.727 363.8177,-143.7269"/>
</g>
<!-- MaterialModule&#45;&gt;CoreModule -->
<g id="edge12" class="edge">
<title>MaterialModule&#45;&gt;CoreModule</title>
<path fill="none" stroke="#000000" d="M349.2349,-104C299.9339,-104 234.5397,-104 234.5397,-104 234.5397,-104 234.5397,-143.7772 234.5397,-143.7772"/>
<polygon fill="#000000" stroke="#000000" points="231.0398,-143.7772 234.5397,-153.7772 238.0398,-143.7773 231.0398,-143.7772"/>
</g>
<!-- DashboardRoutingModule -->
<g id="node14" class="node">
<title>DashboardRoutingModule</title>
<polygon fill="#8dd3c7" stroke="#000000" points="1555.8089,-190 1552.8089,-194 1531.8089,-194 1528.8089,-190 1390.1911,-190 1390.1911,-154 1555.8089,-154 1555.8089,-190"/>
<text text-anchor="middle" x="1473" y="-167.8" font-family="Times,serif" font-size="14.00" fill="#000000">DashboardRoutingModule</text>
</g>
<!-- MaterialModule&#45;&gt;DashboardRoutingModule -->
<g id="edge23" class="edge">
<title>MaterialModule&#45;&gt;DashboardRoutingModule</title>
<path fill="none" stroke="#000000" d="M438.5295,-122.1903C438.5295,-125.5376 438.5295,-128 438.5295,-128 438.5295,-128 1473,-128 1473,-128 1473,-128 1473,-143.8495 1473,-143.8495"/>
<polygon fill="#000000" stroke="#000000" points="1469.5001,-143.8494 1473,-153.8495 1476.5001,-143.8495 1469.5001,-143.8494"/>
</g>
<!-- CoreModule&#45;&gt;DashboardModule -->
<g id="edge16" class="edge">
<title>CoreModule&#45;&gt;DashboardModule</title>
<path fill="none" stroke="#000000" d="M288.2582,-190.1432C288.2582,-196.4611 288.2582,-202 288.2582,-202 288.2582,-202 728.0747,-202 728.0747,-202 728.0747,-202 728.0747,-219.8196 728.0747,-219.8196"/>
<polygon fill="#000000" stroke="#000000" points="724.5748,-219.8195 728.0747,-229.8196 731.5748,-219.8196 724.5748,-219.8195"/>
</g>
<!-- ConfirmComponent  -->
<g id="node12" class="node">
<title>ConfirmComponent </title>
<polygon fill="#fb8072" stroke="#000000" points="284.2717,-266 151.7283,-266 151.7283,-230 284.2717,-230 284.2717,-266"/>
<text text-anchor="middle" x="218" y="-243.8" font-family="Times,serif" font-size="14.00" fill="#000000">ConfirmComponent </text>
</g>
<!-- CoreModule&#45;&gt;ConfirmComponent  -->
<g id="edge13" class="edge">
<title>CoreModule&#45;&gt;ConfirmComponent </title>
<path fill="none" stroke="#000000" stroke-dasharray="5,2" d="M244.8774,-190.0109C244.8774,-190.0109 244.8774,-219.855 244.8774,-219.855"/>
<polygon fill="#000000" stroke="#000000" points="241.3775,-219.8549 244.8774,-229.855 248.3775,-219.855 241.3775,-219.8549"/>
</g>
<!-- MaterialModule  -->
<g id="node13" class="node">
<title>MaterialModule </title>
<polygon fill="#fb8072" stroke="#000000" points="134.4716,-266 23.5284,-266 23.5284,-230 134.4716,-230 134.4716,-266"/>
<text text-anchor="middle" x="79" y="-243.8" font-family="Times,serif" font-size="14.00" fill="#000000">MaterialModule </text>
</g>
<!-- CoreModule&#45;&gt;MaterialModule  -->
<g id="edge14" class="edge">
<title>CoreModule&#45;&gt;MaterialModule </title>
<path fill="none" stroke="#000000" stroke-dasharray="5,2" d="M205.662,-172C155.2952,-172 79,-172 79,-172 79,-172 79,-219.9891 79,-219.9891"/>
<polygon fill="#000000" stroke="#000000" points="75.5001,-219.989 79,-229.9891 82.5001,-219.9891 75.5001,-219.989"/>
</g>
<!-- DashboardRoutingModule&#45;&gt;DashboardModule -->
<g id="edge17" class="edge">
<title>DashboardRoutingModule&#45;&gt;DashboardModule</title>
<path fill="none" stroke="#000000" d="M1473,-190.2396C1473,-205.5706 1473,-225 1473,-225 1473,-225 779.5851,-225 779.5851,-225 779.5851,-225 779.5851,-225.4878 779.5851,-225.4878"/>
<polygon fill="#000000" stroke="#000000" points="776.0853,-219.8776 779.5851,-229.8777 783.0853,-219.8778 776.0853,-219.8776"/>
</g>
<!-- SharedModule -->
<g id="node15" class="node">
<title>SharedModule</title>
<polygon fill="#8dd3c7" stroke="#000000" points="1372.4231,-190 1369.4231,-194 1348.4231,-194 1345.4231,-190 1273.5769,-190 1273.5769,-154 1372.4231,-154 1372.4231,-190"/>
<text text-anchor="middle" x="1323" y="-167.8" font-family="Times,serif" font-size="14.00" fill="#000000">SharedModule</text>
</g>
<!-- SharedModule&#45;&gt;DashboardModule -->
<g id="edge19" class="edge">
<title>SharedModule&#45;&gt;DashboardModule</title>
<path fill="none" stroke="#000000" d="M1323,-190.037C1323,-203.2913 1323,-219 1323,-219 1323,-219 762.4149,-219 762.4149,-219 762.4149,-219 762.4149,-220.0799 762.4149,-220.0799"/>
<polygon fill="#000000" stroke="#000000" points="758.915,-219.7985 762.4149,-229.7985 765.915,-219.7986 758.915,-219.7985"/>
</g>
<!-- ConfirmService -->
<g id="node18" class="node">
<title>ConfirmService</title>
<ellipse fill="#fdb462" stroke="#000000" cx="781" cy="-172" rx="72.9295" ry="18"/>
<text text-anchor="middle" x="781" y="-167.8" font-family="Times,serif" font-size="14.00" fill="#000000">ConfirmService</text>
</g>
<!-- ConfirmService&#45;&gt;DashboardModule -->
<g id="edge22" class="edge">
<title>ConfirmService&#45;&gt;DashboardModule</title>
<path fill="none" stroke="#000000" d="M745.2448,-187.7472C745.2448,-187.7472 745.2448,-219.87 745.2448,-219.87"/>
<polygon fill="#000000" stroke="#000000" points="741.7449,-219.87 745.2448,-229.87 748.7449,-219.8701 741.7449,-219.87"/>
</g>
<!-- ErrorsRoutingModule -->
<g id="node19" class="node">
<title>ErrorsRoutingModule</title>
<polygon fill="#8dd3c7" stroke="#000000" points="1735.647,-190 1732.647,-194 1711.647,-194 1708.647,-190 1596.353,-190 1596.353,-154 1735.647,-154 1735.647,-190"/>
<text text-anchor="middle" x="1666" y="-167.8" font-family="Times,serif" font-size="14.00" fill="#000000">ErrorsRoutingModule</text>
</g>
<!-- ErrorsRoutingModule&#45;&gt;ErrorsModule -->
<g id="edge25" class="edge">
<title>ErrorsRoutingModule&#45;&gt;ErrorsModule</title>
<path fill="none" stroke="#000000" d="M1666,-190.1903C1666,-193.5376 1666,-196 1666,-196 1666,-196 650.8251,-196 650.8251,-196 650.8251,-196 650.8251,-219.8129 650.8251,-219.8129"/>
<polygon fill="#000000" stroke="#000000" points="647.3251,-219.8129 650.8251,-229.8129 654.3251,-219.813 647.3251,-219.8129"/>
</g>
</g>
</svg>
